<svg id="OBJECTS" xmlns="http://www.w3.org/2000/svg" viewBox="0 0 211.17 119.57"><defs><style>.cls-1{fill:#949ead;}.cls-2{fill:#eae4e1;}.cls-3{fill:#9b867b;}.cls-4,.cls-5{fill:#4b505e;}.cls-5{font-size:49.63px;font-family:MonotypeCorsiva, Monotype Corsiva;}</style></defs><title>logo_index</title><circle class="cls-1" cx="62.93" cy="35.69" r="29.83" transform="translate(-11.91 49.09) rotate(-45)"/><path class="cls-2" d="M78.07,20.27H47.79a1.45,1.45,0,0,0-1.44,1.44v7.48a1.45,1.45,0,0,0,1.44,1.44H50l.9,19.57a1,1,0,0,0,1,.92h1a1,1,0,0,0,1-.93l.33-7.34H71.64L72,50.19a1,1,0,0,0,1,.93h1a1,1,0,0,0,1-.93l.9-19.56h2.24a1.45,1.45,0,0,0,1.44-1.44V21.71A1.45,1.45,0,0,0,78.07,20.27ZM52.9,50.12l-1,0L51,30.63h2.76Zm1.37-8.26.07-1.49H71.52l.07,1.49Zm.11-2.48.4-8.75h16.3l.4,8.75ZM73.94,50.12l-1,0-.9-19.52h2.76Zm4.57-20.93a.44.44,0,0,1-.44.44H47.79a.44.44,0,0,1-.44-.44V21.71a.44.44,0,0,1,.44-.45H78.07a.44.44,0,0,1,.44.45Z" transform="translate(-5.1 -5.86)"/><circle class="cls-3" cx="166.99" cy="35.69" r="29.83" transform="translate(18.57 122.67) rotate(-45)"/><path class="cls-2" d="M181.69,16.38h-29.4A1.25,1.25,0,0,0,151,17.63v32a1.25,1.25,0,0,0,1.25,1.25h1l.41,3.36a.82.82,0,0,0,.82.72h1.52a.82.82,0,0,0,.82-.72l.41-3.36H176.7l.4,3.36a.83.83,0,0,0,.82.72h1.52a.83.83,0,0,0,.83-.72l.4-3.36h1a1.25,1.25,0,0,0,1.24-1.25v-32A1.25,1.25,0,0,0,181.69,16.38ZM155.91,54h-1.23l-.38-3.09h2Zm23.39,0h-1.23l-.37-3.09h2Zm2.64-4.34a.25.25,0,0,1-.25.25h-29.4a.25.25,0,0,1-.25-.25V39.74h29.9Zm0-10.93H152V28.56h29.9Zm0-11.18H152V17.63a.25.25,0,0,1,.25-.25h29.4a.25.25,0,0,1,.25.25Z" transform="translate(-5.1 -5.86)"/><path class="cls-2" d="M158.18,21.5a1,1,0,1,0,0,1.94,1,1,0,0,0,0-1.94Z" transform="translate(-5.1 -5.86)"/><path class="cls-2" d="M175.8,21.5a1,1,0,1,0,1,1A1,1,0,0,0,175.8,21.5Z" transform="translate(-5.1 -5.86)"/><path class="cls-2" d="M158.18,34.62a1,1,0,0,0,0-1.94,1,1,0,0,0,0,1.94Z" transform="translate(-5.1 -5.86)"/><path class="cls-2" d="M175.8,34.62a1,1,0,1,0-1-1A1,1,0,0,0,175.8,34.62Z" transform="translate(-5.1 -5.86)"/><path class="cls-2" d="M158.18,45.8a1,1,0,0,0,0-1.94,1,1,0,0,0,0,1.94Z" transform="translate(-5.1 -5.86)"/><path class="cls-2" d="M175.8,45.8a1,1,0,1,0-1-1A1,1,0,0,0,175.8,45.8Z" transform="translate(-5.1 -5.86)"/><circle class="cls-4" cx="114.96" cy="35.69" r="29.83" transform="translate(48.14 133.18) rotate(-76.41)"/><path class="cls-2" d="M119.22,15.87a1.19,1.19,0,0,0-1.14-.83h-6.24a1.18,1.18,0,0,0-1.14.84l-5.81,18.47a1,1,0,0,0,.14.88,1,1,0,0,0,.79.4h2.5v4.29a1.43,1.43,0,1,0,1,0V35.63h3.89V51.47l-5,3.67a.67.67,0,0,0,.39,1.21h12.84a.67.67,0,0,0,.63-.46.67.67,0,0,0-.24-.75l-5-3.67V35.63h7.38a1,1,0,0,0,.79-.4,1,1,0,0,0,.14-.88Zm1.15,39.48H109.55L114.19,52V35.63h1.54V52Zm-14.54-20.7,5.82-18.48a.2.2,0,0,1,.19-.14h6.24a.2.2,0,0,1,.19.14l5.82,18.46Z" transform="translate(-5.1 -5.86)"/><text class="cls-5" transform="translate(0 104.35)">MONCHIS</text></svg>