<svg id="OBJECTS" xmlns="http://www.w3.org/2000/svg" viewBox="0 0 482.92 79.14"><defs><style>.cls-1{fill:#949ead;}.cls-2{fill:#eae4e1;}.cls-3{fill:#9b867b;}.cls-4{fill:#4b505e;}.cls-5{font-size:72px;fill:#fff;font-family:MonotypeCorsiva, Monotype Corsiva;}</style></defs><title>logo_banner</title><circle class="cls-1" cx="50.82" cy="38.31" r="29.83" transform="translate(-33.19 47.58) rotate(-45)"/><path class="cls-2" d="M66,22.89H35.68a1.44,1.44,0,0,0-1.44,1.44v7.48a1.44,1.44,0,0,0,1.44,1.44h2.24l.89,19.57a1,1,0,0,0,1,.92h1a1,1,0,0,0,1-.92l.34-7.35H59.52l.34,7.34a1,1,0,0,0,1,.93h1a1,1,0,0,0,1-.92l.9-19.57H66a1.45,1.45,0,0,0,1.44-1.44V24.33A1.45,1.45,0,0,0,66,22.89ZM40.78,52.74l-1,0-.9-19.52h2.76Zm1.37-8.26L42.22,43H59.41l.07,1.49ZM42.27,42l.4-8.75H59l.4,8.75ZM61.83,52.74l-1,0L60,33.25h2.76ZM66.4,31.81a.44.44,0,0,1-.44.44H35.68a.44.44,0,0,1-.45-.44V24.33a.44.44,0,0,1,.45-.44H66a.44.44,0,0,1,.44.44Z" transform="translate(-20.98 0.43)"/><circle class="cls-3" cx="154.88" cy="38.31" r="29.83" transform="translate(-2.71 121.16) rotate(-45)"/><path class="cls-2" d="M169.57,19H140.18a1.25,1.25,0,0,0-1.25,1.25v32a1.25,1.25,0,0,0,1.25,1.25h1l.41,3.36a.83.83,0,0,0,.82.73h1.52a.83.83,0,0,0,.82-.73l.41-3.36h19.41L165,56.9a.83.83,0,0,0,.82.73h1.52a.83.83,0,0,0,.82-.73l.41-3.36h1a1.25,1.25,0,0,0,1.25-1.25v-32A1.25,1.25,0,0,0,169.57,19ZM143.79,56.63h-1.22l-.38-3.09h2Zm23.39,0H166l-.38-3.09h2Zm2.65-4.34a.26.26,0,0,1-.26.25H140.18a.26.26,0,0,1-.26-.25V42.36h29.91Zm0-10.93H139.92V31.18h29.91Zm0-11.18H139.92V20.25a.26.26,0,0,1,.26-.25h29.39a.26.26,0,0,1,.26.25Z" transform="translate(-20.98 0.43)"/><path class="cls-2" d="M146.06,24.12a1,1,0,1,0,1,1A1,1,0,0,0,146.06,24.12Z" transform="translate(-20.98 0.43)"/><path class="cls-2" d="M163.69,24.12a1,1,0,0,0,0,1.94,1,1,0,0,0,0-1.94Z" transform="translate(-20.98 0.43)"/><path class="cls-2" d="M146.06,37.24a1,1,0,1,0-1-1A1,1,0,0,0,146.06,37.24Z" transform="translate(-20.98 0.43)"/><path class="cls-2" d="M163.69,37.24a1,1,0,0,0,0-1.94,1,1,0,0,0,0,1.94Z" transform="translate(-20.98 0.43)"/><path class="cls-2" d="M146.06,48.42a1,1,0,1,0-1-1A1,1,0,0,0,146.06,48.42Z" transform="translate(-20.98 0.43)"/><path class="cls-2" d="M163.69,48.42a1,1,0,0,0,0-1.94,1,1,0,0,0,0,1.94Z" transform="translate(-20.98 0.43)"/><circle class="cls-4" cx="102.85" cy="38.31" r="29.83" transform="translate(20.45 129.7) rotate(-76.41)"/><path class="cls-2" d="M107.11,18.49a1.2,1.2,0,0,0-1.14-.83H99.72a1.18,1.18,0,0,0-1.13.84L92.77,37a1,1,0,0,0,.15.88,1,1,0,0,0,.79.4H96.2v4.29a1.43,1.43,0,1,0,1,0V38.25h3.88V54.09l-5,3.67a.66.66,0,0,0-.25.75.68.68,0,0,0,.63.46h12.85a.67.67,0,0,0,.63-.46.65.65,0,0,0-.24-.74l-5-3.68V38.25H112a1,1,0,0,0,.79-.4,1,1,0,0,0,.14-.88ZM108.26,58H97.44l4.64-3.37V38.25h1.54V54.6ZM93.72,37.27,99.53,18.8a.21.21,0,0,1,.19-.15H106a.2.2,0,0,1,.19.14L112,37.25Z" transform="translate(-20.98 0.43)"/><text class="cls-5" transform="translate(176.55 57.06)">MONCHIS</text></svg>